#!OML:ASF F:\VICON\USERDATA\INSTALL\rory3\rory3.ASF
:FULLY-SPECIFIED
:DEGREES
73
root -0.2247770327387119 17.6471936447705 39.06153575720104 3.315090376172776 1.7116450193504393 0.9660130392784652
lfemur 5.899388100311988 -2.1174180573504247 -27.067697115910516
ltibia 31.749144944494105
lfoot -6.322432020212219 -5.955425444445072
ltoes -26.456434246270906
rfemur -46.85491337395852 -5.547156422539203 21.87029639673976
rtibia 95.91384632993459
rfoot 4.757786931821226 -5.280420181195531
rtoes 2.58548777908579
lowerback 14.65992777622768 -0.6848090810681274 -2.410248251026676
upperback -0.9044641782817178 -1.2912593685332552 0.1577817673916322
thorax -9.184085200488873 -0.49395567687787034 1.9786061892570297
lowerneck -20.168846072785165 -3.47786168903008 -2.151342878881787
upperneck 17.323913808223203 -4.88681933735952 3.326156298316703
head 8.94944957145395 -2.052012129456017 0.8463623024374447
lclavicle -8.673800470688036e-16 -7.375853846686091e-16
lhumerus -33.98545041171404 -8.207192500615108 93.95880058199408
lradius 111.05961607014979
lwrist 45.133712893748566
lhand -23.417521625151455 2.6627494234693714
lfingers 7.125020000000057
lthumb 3.0396197251181993 32.565791921110964
rclavicle -8.673800470688036e-16 -7.375853846686091e-16
rhumerus -59.20315600175293 10.084640912879543 -100.8344208041808
rradius 102.80226244499553
rwrist -28.51466511050668
rhand -19.587454992986178 -8.964295313730812
rfingers 7.125020000000057
rthumb 6.737114513621363 9.270601313644084
74
root -0.22786226069707216 17.850008379043025 39.88623024625977 3.5017085367019223 0.4215882700873075 0.37323766227274247
lfemur 9.031903573966428 -1.6427442347636938 -26.56893809804577
ltibia 28.35113248741517
lfoot 1.7870533957836519 -9.023133352125804
ltoes -27.49275411932306
rfemur -46.97986608844747 -4.001434623445119 23.348482529658842
rtibia 85.96602379831107
rfoot 4.591185284669146 -4.8989277561415445
rtoes -0.2062635645223887
lowerback 13.774116344462357 -0.9019214234002676 -2.110020226968862
upperback -1.1942148666710477 -1.490005595231748 0.5497089136453996
thorax -9.081553051899428 -0.5920335939552154 2.1964729236219442
lowerneck -19.9037567189318 -3.0997736446256727 -2.2910967567892033
upperneck 17.843895692714458 -4.3125069662881055 3.1066170702858047
head 9.052641699438086 -1.8061767264207584 0.8656039386028609
lclavicle -1.0513174586048135e-15 -8.800086449709874e-16
lhumerus -33.9851533220361 -7.625285923173843 93.01172234283516
lradius 111.47112858398242
lwrist 45.176700167869214
lhand -23.31860276666815 2.433281047912031
lfingers 7.125020000000057
lthumb 3.135101606567881 32.32868597414354
rclavicle -1.0513174586048135e-15 -8.800086449709874e-16
rhumerus -61.40089354971096 9.817618335102551 -100.25279038870026
rradius 102.97130905019705
rwrist -29.047811098695835
rhand -19.340498050189776 -9.635911294859472
rfingers 7.125020000000057
rthumb 6.975626963150308 8.665296399386524
75
root -0.22212617883058433 18.03725851582145 41.043167311491615 3.6915997587027602 -0.8413613912971758 -0.02230948146013434
lfemur 11.950827385889742 -1.4922551659980565 -26.243750272522313
ltibia 26.064829896138523
lfoot 9.780232075774194 -11.26922904168758
ltoes -26.05362371609411
rfemur -46.01124896984972 -2.4354710997460516 24.590008323825753
rtibia 75.27399453143879
rfoot 4.870351575697992 -4.304468573443936
rtoes -3.3745823365961716
lowerback 12.999836747197367 -1.0280984470139534 -1.8098674087502038
upperback -1.4894528592928336 -1.579130542055141 0.8766778427374597
thorax -9.009193149303123 -0.6382625803854348 2.3802744094065815
lowerneck -19.48717318146132 -2.7931752027990386 -2.467697432945785
upperneck 18.38128968332081 -3.8242154889353115 2.948301072749411
head 9.140594151231685 -1.605598884599433 0.900045991737213
lclavicle -9.371068234244826e-16 -7.915750126119851e-16
lhumerus -34.093166882201075 -7.363879321202615 92.15237734065576
lradius 112.17025163975688
lwrist 44.657793017158454
lhand -23.102575970965606 2.3612809794211405
lfingers 7.125020000000057
lthumb 3.343666645128234 32.24996147078854
rclavicle -9.371068234244826e-16 -7.915750126119851e-16
rhumerus -63.247547458642174 9.366215043326012 -99.3156253665848
rradius 103.52924132606509
rwrist -28.898031985338754
rhand -19.097338818196537 -10.047978396032153
rfingers 7.125020000000057
rthumb 7.21047401752114 8.173160253205479
76
root -0.21610431825785908 18.191019071071633 42.112425732643075 3.8772713954143283 -1.9426772653795839 -0.16858611340182383
lfemur 14.322250887535382 -1.866191799946662 -26.273893234752585
ltibia 24.759003145492443
lfoot 16.371008216433868 -12.602837947451135
ltoes -23.06331263594431
rfemur -44.61346510706806 -1.1577314455331034 25.377790315628587
rtibia 64.08145477909166
rfoot 5.255215936710883 -3.70620162847442
rtoes -6.912661772961739
lowerback 12.373720852932529 -1.1289135652079092 -1.651339022230412
upperback -1.7736427298619313 -1.6683249790577803 1.0847375381663449
thorax -9.002977071427772 -0.6804410976962044 2.521936463831773
lowerneck -19.04441284032677 -2.584973887493854 -2.6473860119784307
upperneck 18.761931241570217 -3.473891764330439 2.8310035244998217
head 9.175776854037107 -1.468509059234979 0.9329670632195702
lclavicle -8.536219316638004e-16 -7.269324148842331e-16
lhumerus -34.321629309397686 -7.554671039861381 91.36123584628295
lradius 112.62270733196868
lwrist 43.69161882086402
lhand -22.846241924065858 2.292865644977839
lfingers 7.125020000000057
lthumb 3.5911612784947176 32.17669773878497
rclavicle -8.536219316638004e-16 -7.269324148842331e-16
rhumerus -64.91772738572197 8.629705493791839 -98.32589924027585
rradius 104.10585976912398
rwrist -28.468480223744052
rhand -18.896182701455274 -10.216439674492609
rfingers 7.125020000000057
rthumb 7.404757553135925 7.80755427858517
